<svg width="24" height="32" viewBox="0 0 24 32" fill="none" xmlns="http://www.w3.org/2000/svg">
<path d="M11.6364 26.1818C10.0364 26.1818 8.72727 27.4909 8.72727 29.0909C8.72727 30.6909 10.0364 32 11.6364 32C13.2364 32 14.5455 30.6909 14.5455 29.0909C14.5455 27.4909 13.2364 26.1818 11.6364 26.1818ZM2.90909 0C1.30909 0 0 1.30909 0 2.90909C0 4.50909 1.30909 5.81818 2.90909 5.81818C4.50909 5.81818 5.81818 4.50909 5.81818 2.90909C5.81818 1.30909 4.50909 0 2.90909 0ZM2.90909 8.72727C1.30909 8.72727 0 10.0364 0 11.6364C0 13.2364 1.30909 14.5455 2.90909 14.5455C4.50909 14.5455 5.81818 13.2364 5.81818 11.6364C5.81818 10.0364 4.50909 8.72727 2.90909 8.72727ZM2.90909 17.4545C1.30909 17.4545 0 18.7636 0 20.3636C0 21.9636 1.30909 23.2727 2.90909 23.2727C4.50909 23.2727 5.81818 21.9636 5.81818 20.3636C5.81818 18.7636 4.50909 17.4545 2.90909 17.4545ZM20.3636 5.81818C21.9636 5.81818 23.2727 4.50909 23.2727 2.90909C23.2727 1.30909 21.9636 0 20.3636 0C18.7636 0 17.4545 1.30909 17.4545 2.90909C17.4545 4.50909 18.7636 5.81818 20.3636 5.81818ZM11.6364 17.4545C10.0364 17.4545 8.72727 18.7636 8.72727 20.3636C8.72727 21.9636 10.0364 23.2727 11.6364 23.2727C13.2364 23.2727 14.5455 21.9636 14.5455 20.3636C14.5455 18.7636 13.2364 17.4545 11.6364 17.4545ZM20.3636 17.4545C18.7636 17.4545 17.4545 18.7636 17.4545 20.3636C17.4545 21.9636 18.7636 23.2727 20.3636 23.2727C21.9636 23.2727 23.2727 21.9636 23.2727 20.3636C23.2727 18.7636 21.9636 17.4545 20.3636 17.4545ZM20.3636 8.72727C18.7636 8.72727 17.4545 10.0364 17.4545 11.6364C17.4545 13.2364 18.7636 14.5455 20.3636 14.5455C21.9636 14.5455 23.2727 13.2364 23.2727 11.6364C23.2727 10.0364 21.9636 8.72727 20.3636 8.72727ZM11.6364 8.72727C10.0364 8.72727 8.72727 10.0364 8.72727 11.6364C8.72727 13.2364 10.0364 14.5455 11.6364 14.5455C13.2364 14.5455 14.5455 13.2364 14.5455 11.6364C14.5455 10.0364 13.2364 8.72727 11.6364 8.72727ZM11.6364 0C10.0364 0 8.72727 1.30909 8.72727 2.90909C8.72727 4.50909 10.0364 5.81818 11.6364 5.81818C13.2364 5.81818 14.5455 4.50909 14.5455 2.90909C14.5455 1.30909 13.2364 0 11.6364 0Z" fill="white"/>
</svg>
