<svg width="32" height="32" viewBox="0 0 32 32" fill="none" xmlns="http://www.w3.org/2000/svg">
<path d="M3.70008 19L8.64785 19.0002C9.63132 18.9983 10.4324 18.1674 10.4322 17.1474L10.4325 14.6551C10.5546 14.6198 10.6814 14.5836 10.8152 14.546C12.0383 14.1951 13.7132 13.7156 15.981 13.7165C18.2545 13.7163 19.9316 14.1969 21.1565 14.547C21.2861 14.5843 21.4108 14.6205 21.5308 14.6532L21.5296 16.3248L21.5301 17.1478C21.5302 18.1693 22.3319 18.9991 23.3156 18.9997L28.2637 19.0003C29.2467 19.0002 30.0482 18.1689 30.048 17.1474L30.044 15.7491L30.0061 15.7492C29.9415 15.2171 29.7929 14.6777 29.5672 14.1614C29.3481 13.6742 29.0945 13.2538 28.795 12.8779C26.4137 9.84336 22.7014 8.60596 15.9848 8.60591C6.70079 8.60623 3.31049 12.6979 3.16622 12.8764C2.85674 13.2699 2.60387 13.6907 2.39448 14.166C2.17037 14.6775 2.02164 15.2163 1.9568 15.7477L1.92803 15.7494L1.91335 17.1473C1.91446 18.1677 2.71579 18.9984 3.70008 19Z" fill="white"/>
</svg>
