<svg width="32" height="32" viewBox="0 0 32 32" fill="none" xmlns="http://www.w3.org/2000/svg">
<path d="M31.2826 25.2894L26.3407 20.347C25.3564 19.3666 23.7263 19.3964 22.7077 20.4154L20.2179 22.9046C20.0606 22.8179 19.8978 22.7273 19.7266 22.6313C18.1544 21.7601 16.0025 20.5661 13.7381 18.3C11.4669 16.0291 10.2718 13.8739 9.39796 12.3007C9.30575 12.134 9.21741 11.9733 9.13016 11.8207L10.8011 10.1522L11.6227 9.32963C12.6429 8.30917 12.671 6.67955 11.689 5.69632L6.74705 0.753315C5.76502 -0.228538 4.1342 -0.198751 3.11401 0.821714L1.72122 2.22251L1.75928 2.26029C1.29225 2.85621 0.901994 3.54351 0.611576 4.28468C0.343864 4.99018 0.177188 5.66341 0.100975 6.33802C-0.551571 11.7478 1.92053 16.6919 8.62949 23.4009C17.9033 32.6741 25.3768 31.9736 25.6992 31.9394C26.4014 31.8554 27.0743 31.6877 27.7582 31.4221C28.493 31.135 29.1798 30.7453 29.7754 30.2793L29.8058 30.3064L31.2168 28.9247C32.2349 27.9044 32.2642 26.2742 31.2826 25.2894Z" fill="white"/>
</svg>
