<svg width="26" height="32" viewBox="0 0 26 32" fill="none" xmlns="http://www.w3.org/2000/svg">
<path d="M13.2765 25.3794C16.6316 25.3794 19.3616 22.6566 19.3616 19.3104V11.2629L8.1037 22.4911C9.17743 24.2208 11.0915 25.3794 13.2765 25.3794Z" fill="white"/>
<path d="M19.3616 6.06898C19.3616 2.72277 16.6316 0 13.2766 0C9.9215 0 7.19153 2.72277 7.19153 6.06898V18.5303L19.3616 6.3923V6.06898Z" fill="white"/>
<path d="M25.8378 2.36846C25.6215 2.15273 25.2719 2.15273 25.0556 2.36846L5.85782 21.5155C5.64816 20.816 5.53199 20.0766 5.53199 19.3103V15.9999C5.53199 15.6948 5.28417 15.4482 4.97881 15.4482C4.67345 15.4482 4.42562 15.6948 4.42562 15.9999V19.3103C4.42562 20.3917 4.63085 21.4234 4.98932 22.3818L0.162222 27.1961C-0.0540739 27.4118 -0.0540739 27.7605 0.162222 27.9763C0.270093 28.0838 0.411708 28.1379 0.553324 28.1379C0.694939 28.1379 0.836555 28.0838 0.944426 27.9763L5.47004 23.4626C6.87955 26.0883 9.58242 27.915 12.7234 28.1103V30.8965H9.95748C9.65212 30.8965 9.40429 31.1432 9.40429 31.4483C9.40429 31.7534 9.65212 32 9.95748 32H16.5957C16.9011 32 17.1489 31.7534 17.1489 31.4483C17.1489 31.1432 16.9011 30.8965 16.5957 30.8965H13.8298V28.1098C18.4522 27.8229 22.1276 23.9911 22.1276 19.3103V15.9999C22.1276 15.6948 21.8797 15.4482 21.5744 15.4482C21.269 15.4482 21.0212 15.6948 21.0212 15.9999V19.3103C21.0212 23.5696 17.5472 27.0345 13.2766 27.0345C10.2014 27.0345 7.54725 25.2331 6.2976 22.6372L25.8378 3.1486C26.0541 2.93287 26.0541 2.58418 25.8378 2.36846Z" fill="white"/>
</svg>
